<?xml version="1.0" encoding="UTF-8"?>
<!DOCTYPE svg PUBLIC "-//W3C//DTD SVG 1.1//EN" "http://www.w3.org/Graphics/SVG/1.1/DTD/svg11.dtd">
<svg xmlns="http://www.w3.org/2000/svg" version="1.1" width="450px" height="360px" style="shape-rendering:geometricPrecision; text-rendering:geometricPrecision; image-rendering:optimizeQuality; fill-rule:evenodd; clip-rule:evenodd" xmlns:xlink="http://www.w3.org/1999/xlink">
<g><path style="opacity:0.998" fill="#f6f6f6" d="M 274.5,110.5 C 275.491,116.979 275.824,123.646 275.5,130.5C 258.809,141.834 241.809,152.834 224.5,163.5C 223.261,163.058 222.261,162.391 221.5,161.5C 221.027,160.094 220.027,159.427 218.5,159.5C 217.29,159.068 216.29,158.401 215.5,157.5C 215.027,156.094 214.027,155.427 212.5,155.5C 212.027,154.094 211.027,153.427 209.5,153.5C 208.29,153.068 207.29,152.401 206.5,151.5C 206.027,150.094 205.027,149.427 203.5,149.5C 202.29,149.068 201.29,148.401 200.5,147.5C 200.027,146.094 199.027,145.427 197.5,145.5C 197.167,145.5 196.833,145.5 196.5,145.5C 196.167,144.5 195.5,143.833 194.5,143.5C 194.167,143.5 193.833,143.5 193.5,143.5C 193.167,142.5 192.5,141.833 191.5,141.5C 191.44,140.957 191.107,140.624 190.5,140.5C 189.833,162.996 189.167,185.33 188.5,207.5C 186.77,206.974 185.436,205.974 184.5,204.5C 183.738,202.738 182.404,201.738 180.5,201.5C 180.027,200.094 179.027,199.427 177.5,199.5C 177.167,198.5 176.5,197.833 175.5,197.5C 174.508,197.672 173.842,197.338 173.5,196.5C 172.842,167.814 173.508,139.48 175.5,111.5C 178.167,113.167 180.833,114.833 183.5,116.5C 183.973,117.906 184.973,118.573 186.5,118.5C 186.973,119.906 187.973,120.573 189.5,120.5C 189.821,122.048 190.821,122.715 192.5,122.5C 194.411,123.075 196.078,124.075 197.5,125.5C 198.035,127.446 199.368,128.446 201.5,128.5C 205.336,130.584 209.003,132.917 212.5,135.5C 213.035,137.446 214.368,138.446 216.5,138.5C 219.118,139.945 221.618,141.611 224,143.5C 231.271,138.118 238.771,133.118 246.5,128.5C 248.027,128.573 249.027,127.906 249.5,126.5C 250.29,125.599 251.29,124.932 252.5,124.5C 254.027,124.573 255.027,123.906 255.5,122.5C 257.228,120.774 259.228,119.441 261.5,118.5C 263.027,118.573 264.027,117.906 264.5,116.5C 266.027,116.573 267.027,115.906 267.5,114.5C 269.663,112.917 271.996,111.584 274.5,110.5 Z"/></g>
<g><path style="opacity:0.482" fill="#535554" d="M 267.5,114.5 C 267.027,115.906 266.027,116.573 264.5,116.5C 264.973,115.094 265.973,114.427 267.5,114.5 Z"/></g>
<g><path style="opacity:0.031" fill="#232425" d="M 183.5,116.5 C 185.027,116.427 186.027,117.094 186.5,118.5C 184.973,118.573 183.973,117.906 183.5,116.5 Z"/></g>
<g><path style="opacity:0.51" fill="#535455" d="M 264.5,116.5 C 264.027,117.906 263.027,118.573 261.5,118.5C 261.973,117.094 262.973,116.427 264.5,116.5 Z"/></g>
<g><path style="opacity:0.262" fill="#757576" d="M 274.5,110.5 C 274.56,109.957 274.893,109.624 275.5,109.5C 276.819,116.656 276.819,123.656 275.5,130.5C 275.824,123.646 275.491,116.979 274.5,110.5 Z"/></g>
<g><path style="opacity:0.004" fill="#272728" d="M 186.5,118.5 C 188.027,118.427 189.027,119.094 189.5,120.5C 187.973,120.573 186.973,119.906 186.5,118.5 Z"/></g>
<g><path style="opacity:0.426" fill="#888989" d="M 175.5,111.5 C 173.508,139.48 172.842,167.814 173.5,196.5C 171.873,195.154 171.206,193.654 171.5,192C 172.163,164.566 172.829,137.066 173.5,109.5C 174.522,109.855 175.189,110.522 175.5,111.5 Z"/></g>
<g><path style="opacity:0.914" fill="#828282" d="M 189.5,120.5 C 190.71,120.932 191.71,121.599 192.5,122.5C 190.821,122.715 189.821,122.048 189.5,120.5 Z"/></g>
<g><path style="opacity:0.529" fill="#545455" d="M 255.5,122.5 C 255.027,123.906 254.027,124.573 252.5,124.5C 252.973,123.094 253.973,122.427 255.5,122.5 Z"/></g>
<g><path style="opacity:0.714" fill="#5c5c5c" d="M 197.5,125.5 C 199.23,126.026 200.564,127.026 201.5,128.5C 199.368,128.446 198.035,127.446 197.5,125.5 Z"/></g>
<g><path style="opacity:0.624" fill="#5f605f" d="M 249.5,126.5 C 249.027,127.906 248.027,128.573 246.5,128.5C 246.973,127.094 247.973,126.427 249.5,126.5 Z"/></g>
<g><path style="opacity:0.773" fill="#6f6f70" d="M 212.5,135.5 C 214.23,136.026 215.564,137.026 216.5,138.5C 214.368,138.446 213.035,137.446 212.5,135.5 Z"/></g>
<g><path style="opacity:0.522" fill="#8d8d8d" d="M 191.5,141.5 C 190.833,141.5 190.5,141.833 190.5,142.5C 190.833,164.51 190.5,186.51 189.5,208.5C 188.893,208.376 188.56,208.043 188.5,207.5C 189.167,185.33 189.833,162.996 190.5,140.5C 191.107,140.624 191.44,140.957 191.5,141.5 Z"/></g>
<g><path style="opacity:0.027" fill="#171718" d="M 190.5,142.5 C 190.5,141.833 190.833,141.5 191.5,141.5C 192.5,141.833 193.167,142.5 193.5,143.5C 193.217,144.289 192.717,144.956 192,145.5C 191.768,144.263 191.268,143.263 190.5,142.5 Z"/></g>
<g><path style="opacity:0.004" fill="#1a1a1c" d="M 194.5,143.5 C 195.5,143.833 196.167,144.5 196.5,145.5C 195.167,145.5 194.5,144.833 194.5,143.5 Z"/></g>
<g><path style="opacity:0.471" fill="#757576" d="M 197.5,145.5 C 199.027,145.427 200.027,146.094 200.5,147.5C 198.973,147.573 197.973,146.906 197.5,145.5 Z"/></g>
<g><path style="opacity:0.38" fill="#6c6c6c" d="M 203.5,149.5 C 205.027,149.427 206.027,150.094 206.5,151.5C 204.973,151.573 203.973,150.906 203.5,149.5 Z"/></g>
<g><path style="opacity:0.365" fill="#676767" d="M 209.5,153.5 C 211.027,153.427 212.027,154.094 212.5,155.5C 210.973,155.573 209.973,154.906 209.5,153.5 Z"/></g>
<g><path style="opacity:0.997" fill="#eeeeee" d="M 274.5,152.5 C 275.491,158.979 275.824,165.646 275.5,172.5C 259.337,183.415 243.004,194.082 226.5,204.5C 225.509,198.021 225.176,191.354 225.5,184.5C 241.313,173.09 257.646,162.423 274.5,152.5 Z"/></g>
<g><path style="opacity:0.341" fill="#636466" d="M 212.5,155.5 C 214.027,155.427 215.027,156.094 215.5,157.5C 213.973,157.573 212.973,156.906 212.5,155.5 Z"/></g>
<g><path style="opacity:0.269" fill="#747575" d="M 274.5,152.5 C 274.56,151.957 274.893,151.624 275.5,151.5C 276.819,158.656 276.819,165.656 275.5,172.5C 275.824,165.646 275.491,158.979 274.5,152.5 Z"/></g>
<g><path style="opacity:0.302" fill="#5e5e60" d="M 218.5,159.5 C 220.027,159.427 221.027,160.094 221.5,161.5C 219.973,161.573 218.973,160.906 218.5,159.5 Z"/></g>
<g><path style="opacity:0.235" fill="#474748" d="M 225.5,184.5 C 225.176,191.354 225.509,198.021 226.5,204.5C 225.614,205.776 224.614,205.776 223.5,204.5C 223.999,197.912 224.665,191.245 225.5,184.5 Z"/></g>
<g><path style="opacity:0.008" fill="#2e2e2e" d="M 175.5,197.5 C 176.5,197.833 177.167,198.5 177.5,199.5C 176.167,199.5 175.5,198.833 175.5,197.5 Z"/></g>
<g><path style="opacity:0.506" fill="#5d5f5e" d="M 177.5,199.5 C 179.027,199.427 180.027,200.094 180.5,201.5C 178.973,201.573 177.973,200.906 177.5,199.5 Z"/></g>
<g><path style="opacity:0.796" fill="#7f807f" d="M 180.5,201.5 C 182.404,201.738 183.738,202.738 184.5,204.5C 182.596,204.262 181.262,203.262 180.5,201.5 Z"/></g>
<g><path style="opacity:0.997" fill="#e5e5e5" d="M 238.5,220.5 C 239.818,223.258 240.485,226.424 240.5,230C 240.463,233.583 240.13,237.083 239.5,240.5C 234.82,243.934 229.987,247.267 225,250.5C 224.333,243.167 224.333,235.833 225,228.5C 229.445,225.696 233.945,223.029 238.5,220.5 Z"/></g>
<g><path style="opacity:0.434" fill="#838485" d="M 239.5,240.5 C 240.13,237.083 240.463,233.583 240.5,230C 240.485,226.424 239.818,223.258 238.5,220.5C 239.172,219.733 240.005,219.066 241,218.5C 241.273,220.101 241.773,221.601 242.5,223C 242.178,229.174 241.178,235.007 239.5,240.5 Z"/></g>
</svg>
