<svg width="130" height="66" viewBox="0 0 130 66" fill="none" xmlns="http://www.w3.org/2000/svg">
<path d="M66.1444 18.0388L72.6551 11.5282C73.7126 10.4706 75.4273 10.4706 76.4848 11.5282L81.0806 16.1239C82.1382 17.1815 82.1382 18.8961 81.0806 19.9537L76.4848 24.5494C75.4273 25.607 73.7126 25.607 72.6551 24.5494L66.1444 18.0388Z" fill="#30B2CC"/>
<path d="M48.9104 19.9537C47.8528 18.8961 47.8528 17.1815 48.9104 16.1239L53.5061 11.5282C54.5637 10.4706 56.2783 10.4706 57.3359 11.5282L63.8465 18.0388L57.3359 24.5494C56.2783 25.607 54.5637 25.607 53.5061 24.5494L48.9104 19.9537Z" fill="#7E76F8"/>
<path d="M59.6338 27.6133C58.7877 26.7672 58.7877 25.3955 59.6338 24.5494L63.4636 20.7196C64.3096 19.8736 65.6813 19.8736 66.5274 20.7196L70.3572 24.5494C71.2032 25.3955 71.2032 26.7672 70.3572 27.6133L66.5274 31.4431C65.6813 32.2891 64.3096 32.2891 63.4636 31.4431L59.6338 27.6133Z" fill="#7086A8"/>
<path d="M59.6338 11.5282C58.7877 10.6821 58.7877 9.31038 59.6338 8.46433L63.4636 4.63454C64.3096 3.78849 65.6813 3.78849 66.5274 4.63454L70.3572 8.46433C71.2032 9.31038 71.2032 10.6821 70.3572 11.5282L64.9955 16.8899L59.6338 11.5282Z" fill="#F7C06D"/>
<path d="M89.2945 42.8535C89.8 43.3186 90.4268 43.5511 91.175 43.5511C91.9231 43.5511 92.5398 43.3186 93.0251 42.8535C93.5306 42.3682 93.7834 41.7717 93.7834 41.064C93.7834 40.3563 93.5306 39.7699 93.0251 39.3048C92.5398 38.8195 91.9231 38.5769 91.175 38.5769C90.4268 38.5769 89.8 38.8195 89.2945 39.3048C88.8092 39.7699 88.5665 40.3563 88.5665 41.064C88.5665 41.7717 88.8092 42.3682 89.2945 42.8535Z" fill="white"/>
<path d="M13.0829 61.901C11.4653 61.901 9.96903 61.6078 8.59405 61.0214C7.2393 60.435 6.0463 59.6161 5.01507 58.5646C4.00406 57.5132 3.21547 56.2797 2.6493 54.8643C2.08313 53.4489 1.80005 51.902 1.80005 50.2238C1.80005 48.5455 2.07302 46.9986 2.61897 45.5832C3.18514 44.1476 3.97373 42.9141 4.98474 41.8829C6.01597 40.8315 7.21908 40.0227 8.59405 39.4565C9.96903 38.8701 11.4653 38.5769 13.0829 38.5769C14.7006 38.5769 16.1463 38.8499 17.4202 39.3958C18.7143 39.9418 19.8062 40.6697 20.6959 41.5796C21.5856 42.4693 22.2225 43.45 22.6067 44.5217L18.9064 46.2505C18.4818 45.1182 17.7639 44.188 16.7529 43.4601C15.7419 42.7119 14.5186 42.3379 13.0829 42.3379C11.6675 42.3379 10.4139 42.6715 9.32198 43.3388C8.25031 44.006 7.41117 44.9261 6.80456 46.0988C6.21817 47.2716 5.92498 48.6466 5.92498 50.2238C5.92498 51.8009 6.21817 53.186 6.80456 54.379C7.41117 55.5518 8.25031 56.4718 9.32198 57.1391C10.4139 57.8064 11.6675 58.14 13.0829 58.14C14.5186 58.14 15.7419 57.776 16.7529 57.0481C17.7639 56.3 18.4818 55.3597 18.9064 54.2274L22.6067 55.9562C22.2225 57.0279 21.5856 58.0187 20.6959 58.9286C19.8062 59.8183 18.7143 60.5361 17.4202 61.082C16.1463 61.628 14.7006 61.901 13.0829 61.901Z" fill="white"/>
<path d="M32.3104 61.901C30.6928 61.901 29.2167 61.5269 27.8822 60.7787C26.5679 60.0306 25.5164 59.0095 24.7278 57.7154C23.9594 56.4213 23.5753 54.9452 23.5753 53.2871C23.5753 51.6291 23.9594 50.153 24.7278 48.8589C25.5164 47.5648 26.5679 46.5437 27.8822 45.7955C29.1965 45.0474 30.6726 44.6733 32.3104 44.6733C33.928 44.6733 35.394 45.0474 36.7083 45.7955C38.0226 46.5437 39.064 47.5648 39.8323 48.8589C40.6209 50.1328 41.0152 51.6089 41.0152 53.2871C41.0152 54.9452 40.6209 56.4213 39.8323 57.7154C39.0437 59.0095 37.9923 60.0306 36.678 60.7787C35.3637 61.5269 33.9078 61.901 32.3104 61.901ZM32.3104 58.2613C33.2001 58.2613 33.9786 58.049 34.6458 57.6244C35.3333 57.1998 35.8692 56.6134 36.2534 55.8652C36.6578 55.0968 36.86 54.2375 36.86 53.2871C36.86 52.3166 36.6578 51.4673 36.2534 50.7394C35.8692 49.9912 35.3333 49.4048 34.6458 48.9802C33.9786 48.5354 33.2001 48.313 32.3104 48.313C31.4005 48.313 30.6018 48.5354 29.9143 48.9802C29.2268 49.4048 28.6809 49.9912 28.2765 50.7394C27.8923 51.4673 27.7002 52.3166 27.7002 53.2871C27.7002 54.2375 27.8923 55.0968 28.2765 55.8652C28.6809 56.6134 29.2268 57.1998 29.9143 57.6244C30.6018 58.049 31.4005 58.2613 32.3104 58.2613Z" fill="white"/>
<path d="M42.9451 61.537V45.0373H46.6758V48.8589L46.2511 48.222C46.5544 47.029 47.161 46.1393 48.071 45.5529C48.9809 44.9665 50.0525 44.6733 51.286 44.6733C52.6407 44.6733 53.8337 45.0272 54.865 45.7349C55.8962 46.4426 56.5635 47.3727 56.8668 48.5253L55.7445 48.6163C56.25 47.3019 57.0083 46.3213 58.0193 45.6742C59.0303 45.0069 60.193 44.6733 61.5073 44.6733C62.6801 44.6733 63.7214 44.9362 64.6313 45.4619C65.5615 45.9876 66.2894 46.7257 66.8151 47.676C67.3409 48.6061 67.6037 49.6879 67.6037 50.9214V61.537H63.6304V51.8616C63.6304 51.1337 63.499 50.5069 63.2361 49.9811C62.9733 49.4554 62.6093 49.051 62.1443 48.7679C61.6792 48.4646 61.113 48.313 60.4458 48.313C59.8189 48.313 59.2629 48.4646 58.7776 48.7679C58.2923 49.051 57.9182 49.4554 57.6554 49.9811C57.3925 50.5069 57.2611 51.1337 57.2611 51.8616V61.537H53.2878V51.8616C53.2878 51.1337 53.1563 50.5069 52.8935 49.9811C52.6306 49.4554 52.2565 49.051 51.7713 48.7679C51.3062 48.4646 50.7501 48.313 50.1031 48.313C49.4763 48.313 48.9202 48.4646 48.4349 48.7679C47.9496 49.051 47.5756 49.4554 47.3127 49.9811C47.0498 50.5069 46.9184 51.1337 46.9184 51.8616V61.537H42.9451Z" fill="white"/>
<path d="M78.8901 61.901C77.6971 61.901 76.5951 61.6684 75.5841 61.2034C74.5933 60.7181 73.8047 60.0306 73.2183 59.1409L73.6126 58.3523V61.537H69.8819V38.5769H73.8552V48.313L73.2486 47.494C73.8148 46.6043 74.5832 45.9169 75.5537 45.4316C76.5243 44.9261 77.6465 44.6733 78.9204 44.6733C80.4774 44.6733 81.8827 45.0575 83.1363 45.8259C84.39 46.5942 85.3808 47.6255 86.1087 48.9196C86.8568 50.2137 87.2309 51.6695 87.2309 53.2871C87.2309 54.8845 86.867 56.3404 86.139 57.6547C85.4111 58.969 84.4203 60.0104 83.1666 60.7787C81.913 61.5269 80.4875 61.901 78.8901 61.901ZM78.4351 58.2613C79.345 58.2613 80.1538 58.049 80.8615 57.6244C81.5693 57.1998 82.1152 56.6134 82.4994 55.8652C82.9038 55.1171 83.106 54.2577 83.106 53.2871C83.106 52.3166 82.9038 51.4673 82.4994 50.7394C82.1152 49.9912 81.5693 49.4048 80.8615 48.9802C80.1538 48.5354 79.345 48.313 78.4351 48.313C77.5656 48.313 76.777 48.5253 76.0693 48.9499C75.3819 49.3745 74.8359 49.971 74.4315 50.7394C74.0473 51.4875 73.8552 52.3368 73.8552 53.2871C73.8552 54.2577 74.0473 55.1171 74.4315 55.8652C74.8359 56.6134 75.3819 57.1998 76.0693 57.6244C76.777 58.049 77.5656 58.2613 78.4351 58.2613Z" fill="white"/>
<path d="M89.1769 61.537V45.0373H93.1502V61.537H89.1769Z" fill="white"/>
<path d="M95.7355 61.537V45.0373H99.4662V48.2826L99.1629 47.7063C99.5471 46.7156 100.174 45.9674 101.043 45.4619C101.933 44.9362 102.964 44.6733 104.137 44.6733C105.35 44.6733 106.422 44.9362 107.352 45.4619C108.302 45.9876 109.04 46.7257 109.566 47.676C110.092 48.6061 110.355 49.6879 110.355 50.9214V61.537H106.382V51.8616C106.382 51.1337 106.24 50.5069 105.957 49.9811C105.674 49.4554 105.279 49.051 104.774 48.7679C104.289 48.4646 103.712 48.313 103.045 48.313C102.398 48.313 101.822 48.4646 101.316 48.7679C100.811 49.051 100.417 49.4554 100.133 49.9811C99.8504 50.5069 99.7088 51.1337 99.7088 51.8616V61.537H95.7355Z" fill="white"/>
<path d="M120.457 61.901C118.758 61.901 117.272 61.5168 115.998 60.7484C114.724 59.98 113.733 58.9387 113.026 57.6244C112.318 56.3101 111.964 54.8542 111.964 53.2568C111.964 51.5987 112.318 50.1328 113.026 48.8589C113.754 47.5648 114.734 46.5437 115.968 45.7955C117.221 45.0474 118.617 44.6733 120.153 44.6733C121.447 44.6733 122.58 44.8856 123.55 45.3102C124.541 45.7349 125.38 46.3213 126.068 47.0694C126.755 47.8176 127.281 48.6769 127.645 49.6475C128.009 50.5978 128.191 51.6291 128.191 52.7412C128.191 53.0243 128.171 53.3175 128.13 53.6208C128.11 53.9241 128.059 54.1869 127.979 54.4094H115.24V51.3763H125.734L123.854 52.8018C124.036 51.8717 123.985 51.0427 123.702 50.3148C123.439 49.5868 122.994 49.0106 122.367 48.5859C121.761 48.1613 121.023 47.949 120.153 47.949C119.324 47.949 118.586 48.1613 117.939 48.5859C117.292 48.9903 116.797 49.5969 116.453 50.4057C116.129 51.1943 116.008 52.1548 116.089 53.2871C116.008 54.2981 116.14 55.1979 116.483 55.9865C116.847 56.7549 117.373 57.3514 118.06 57.776C118.768 58.2007 119.577 58.413 120.487 58.413C121.397 58.413 122.165 58.2209 122.792 57.8367C123.439 57.4525 123.945 56.9369 124.309 56.2898L127.524 57.867C127.2 58.6556 126.695 59.3532 126.007 59.9598C125.32 60.5664 124.501 61.0416 123.55 61.3853C122.62 61.7291 121.589 61.901 120.457 61.901Z" fill="white"/>
</svg>
