<svg width="160" height="40" viewBox="0 0 160 40" fill="none" xmlns="http://www.w3.org/2000/svg">
<path d="M48.0728 28.2381V11.9502H51.1442V25.4459H58.5901V28.2381H48.0728Z" fill="#3A5088"/>
<path d="M65.2215 28.5638C64.0736 28.5638 63.0421 28.3311 62.1269 27.8657C61.2116 27.4004 60.4903 26.7256 59.9629 25.8414C59.4355 24.9572 59.1718 23.8946 59.1718 22.6536V22.2813C59.1718 21.0403 59.4355 19.9777 59.9629 19.0935C60.4903 18.2093 61.2116 17.5345 62.1269 17.0691C63.0421 16.6038 64.0736 16.3711 65.2215 16.3711C66.3695 16.3711 67.4011 16.6038 68.3163 17.0691C69.2315 17.5345 69.9528 18.2093 70.4803 19.0935C71.0077 19.9777 71.2714 21.0403 71.2714 22.2813V22.6536C71.2714 23.8946 71.0077 24.9572 70.4803 25.8414C69.9528 26.7256 69.2315 27.4004 68.3163 27.8657C67.4011 28.3311 66.3695 28.5638 65.2215 28.5638ZM65.2215 25.9577C66.1213 25.9577 66.8659 25.6707 67.4554 25.0968C68.0448 24.5073 68.3396 23.6696 68.3396 22.5838V22.3511C68.3396 21.2652 68.0448 20.4353 67.4554 19.8613C66.8814 19.2719 66.1368 18.9771 65.2215 18.9771C64.3218 18.9771 63.5773 19.2719 62.9878 19.8613C62.3983 20.4353 62.1036 21.2652 62.1036 22.3511V22.5838C62.1036 23.6696 62.3983 24.5073 62.9878 25.0968C63.5773 25.6707 64.3218 25.9577 65.2215 25.9577Z" fill="#3A5088"/>
<path d="M72.3719 22.514V22.1417C72.3719 20.9317 72.6123 19.9001 73.0932 19.0469C73.5741 18.1783 74.2101 17.519 75.0012 17.0691C75.8079 16.6038 76.6843 16.3711 77.6306 16.3711C78.6854 16.3711 79.4843 16.5572 80.0272 16.9295C80.5702 17.3018 80.9657 17.6896 81.2139 18.0929H81.6328V16.6968H84.5182V30.2856C84.5182 31.0768 84.2854 31.705 83.82 32.1704C83.3546 32.6513 82.7342 32.8917 81.9585 32.8917H74.2334V30.3322H80.9347C81.3691 30.3322 81.5863 30.0995 81.5863 29.6341V26.6325H81.1674C81.0124 26.8807 80.7951 27.1366 80.5159 27.4004C80.2367 27.6485 79.8644 27.858 79.399 28.0286C78.9336 28.1992 78.3442 28.2846 77.6306 28.2846C76.6843 28.2846 75.8079 28.0596 75.0012 27.6098C74.2101 27.1444 73.5741 26.4851 73.0932 25.6319C72.6123 24.7633 72.3719 23.7239 72.3719 22.514ZM78.4683 25.725C79.368 25.725 80.1203 25.438 80.7253 24.8641C81.3303 24.2901 81.6328 23.4835 81.6328 22.4442V22.2115C81.6328 21.1566 81.3303 20.35 80.7253 19.7915C80.1358 19.2176 79.3835 18.9306 78.4683 18.9306C77.5685 18.9306 76.8163 19.2176 76.2113 19.7915C75.6063 20.35 75.3037 21.1566 75.3037 22.2115V22.4442C75.3037 23.4835 75.6063 24.2901 76.2113 24.8641C76.8163 25.438 77.5685 25.725 78.4683 25.725Z" fill="#3A5088"/>
<path d="M92.213 28.5638C91.0651 28.5638 90.0335 28.3311 89.1182 27.8657C88.203 27.4004 87.4817 26.7256 86.9543 25.8414C86.4269 24.9572 86.1631 23.8946 86.1631 22.6536V22.2813C86.1631 21.0403 86.4269 19.9777 86.9543 19.0935C87.4817 18.2093 88.203 17.5345 89.1182 17.0691C90.0335 16.6038 91.0651 16.3711 92.213 16.3711C93.3609 16.3711 94.3924 16.6038 95.3077 17.0691C96.2229 17.5345 96.9442 18.2093 97.4717 19.0935C97.9991 19.9777 98.2628 21.0403 98.2628 22.2813V22.6536C98.2628 23.8946 97.9991 24.9572 97.4717 25.8414C96.9442 26.7256 96.2229 27.4004 95.3077 27.8657C94.3924 28.3311 93.3609 28.5638 92.213 28.5638ZM92.213 25.9577C93.1127 25.9577 93.8573 25.6707 94.4467 25.0968C95.0362 24.5073 95.3309 23.6696 95.3309 22.5838V22.3511C95.3309 21.2652 95.0362 20.4353 94.4467 19.8613C93.8728 19.2719 93.1282 18.9771 92.213 18.9771C91.3132 18.9771 90.5687 19.2719 89.9792 19.8613C89.3897 20.4353 89.095 21.2652 89.095 22.3511V22.5838C89.095 23.6696 89.3897 24.5073 89.9792 25.0968C90.5687 25.6707 91.3132 25.9577 92.213 25.9577Z" fill="#3A5088"/>
<path d="M99.9219 28.2382V16.697H102.854V28.2382H99.9219ZM101.388 15.3475C100.86 15.3475 100.411 15.1768 100.038 14.8355C99.6815 14.4943 99.5031 14.0444 99.5031 13.486C99.5031 12.9276 99.6815 12.4777 100.038 12.1364C100.411 11.7952 100.86 11.6245 101.388 11.6245C101.931 11.6245 102.381 11.7952 102.737 12.1364C103.094 12.4777 103.273 12.9276 103.273 13.486C103.273 14.0444 103.094 14.4943 102.737 14.8355C102.381 15.1768 101.931 15.3475 101.388 15.3475Z" fill="#3A5088"/>
<path d="M105.056 32.8917V16.6968H107.941V18.0929H108.36C108.623 17.6431 109.034 17.2475 109.593 16.9062C110.151 16.5495 110.95 16.3711 111.99 16.3711C112.92 16.3711 113.781 16.6038 114.572 17.0691C115.364 17.519 116 18.186 116.48 19.0702C116.961 19.9544 117.202 21.0248 117.202 22.2813V22.6536C117.202 23.9101 116.961 24.9804 116.48 25.8646C116 26.7488 115.364 27.4236 114.572 27.889C113.781 28.3388 112.92 28.5638 111.99 28.5638C111.292 28.5638 110.702 28.4785 110.221 28.3078C109.756 28.1527 109.376 27.951 109.081 27.7028C108.802 27.4391 108.577 27.1754 108.406 26.9117H107.987V32.8917H105.056ZM111.105 26.0042C112.021 26.0042 112.773 25.7173 113.362 25.1433C113.967 24.5538 114.27 23.7007 114.27 22.5838V22.3511C114.27 21.2342 113.967 20.3888 113.362 19.8148C112.757 19.2253 112.005 18.9306 111.105 18.9306C110.206 18.9306 109.453 19.2253 108.848 19.8148C108.243 20.3888 107.941 21.2342 107.941 22.3511V22.5838C107.941 23.7007 108.243 24.5538 108.848 25.1433C109.453 25.7173 110.206 26.0042 111.105 26.0042Z" fill="#3A5088"/>
<path d="M123.64 28.5638C122.135 28.5638 120.902 28.238 119.94 27.5865C118.979 26.935 118.397 26.0042 118.195 24.7943L120.894 24.0962C121.003 24.6392 121.181 25.0657 121.43 25.376C121.693 25.6862 122.011 25.9112 122.384 26.0508C122.771 26.1749 123.19 26.2369 123.64 26.2369C124.323 26.2369 124.827 26.1206 125.152 25.8879C125.478 25.6397 125.641 25.3372 125.641 24.9804C125.641 24.6236 125.486 24.3522 125.176 24.166C124.865 23.9644 124.369 23.8015 123.687 23.6774L123.035 23.561C122.228 23.4059 121.492 23.1965 120.825 22.9328C120.157 22.6536 119.622 22.2735 119.219 21.7926C118.816 21.3118 118.614 20.6913 118.614 19.9312C118.614 18.7832 119.033 17.9068 119.871 17.3018C120.708 16.6813 121.81 16.3711 123.175 16.3711C124.462 16.3711 125.533 16.658 126.386 17.232C127.239 17.806 127.797 18.5583 128.061 19.4891L125.339 20.3267C125.215 19.7373 124.959 19.3184 124.571 19.0702C124.198 18.822 123.733 18.6979 123.175 18.6979C122.616 18.6979 122.19 18.7988 121.895 19.0004C121.6 19.1866 121.453 19.4503 121.453 19.7915C121.453 20.1638 121.608 20.4431 121.918 20.6292C122.228 20.7998 122.647 20.9317 123.175 21.0248L123.826 21.1411C124.695 21.2962 125.478 21.5057 126.176 21.7694C126.89 22.0176 127.448 22.3821 127.852 22.863C128.27 23.3284 128.48 23.9644 128.48 24.771C128.48 25.981 128.038 26.9195 127.154 27.5865C126.285 28.238 125.114 28.5638 123.64 28.5638Z" fill="#3A5088"/>
<path d="M134.4 28.4242C133.5 28.4242 132.709 28.2225 132.026 27.8192C131.359 27.4004 130.84 26.8264 130.467 26.0973C130.095 25.3682 129.909 24.5306 129.909 23.5843V16.6968H132.841V23.3516C132.841 24.2203 133.05 24.8718 133.469 25.3062C133.903 25.7405 134.516 25.9577 135.307 25.9577C136.207 25.9577 136.905 25.663 137.401 25.0735C137.898 24.4685 138.146 23.6308 138.146 22.5605V16.6968H141.078V28.238H138.192V26.7256H137.774C137.588 27.1134 137.238 27.4934 136.727 27.8657C136.215 28.238 135.439 28.4242 134.4 28.4242Z" fill="#3A5088"/>
<path d="M143.293 28.238V16.6968H146.178V17.9533H146.597C146.799 17.5655 147.133 17.232 147.598 16.9528C148.063 16.658 148.676 16.5107 149.436 16.5107C150.258 16.5107 150.918 16.6736 151.414 16.9993C151.91 17.3096 152.29 17.7206 152.554 18.2326H152.973C153.237 17.7362 153.609 17.3251 154.09 16.9993C154.571 16.6736 155.253 16.5107 156.137 16.5107C156.851 16.5107 157.495 16.6658 158.069 16.9761C158.658 17.2708 159.124 17.7284 159.465 18.3489C159.822 18.9539 160 19.7217 160 20.6525V28.238H157.068V20.8619C157.068 20.2259 156.905 19.7528 156.58 19.4425C156.254 19.1168 155.796 18.9539 155.207 18.9539C154.54 18.9539 154.02 19.171 153.648 19.6054C153.291 20.0242 153.113 20.6292 153.113 21.4203V28.238H150.181V20.8619C150.181 20.2259 150.018 19.7528 149.692 19.4425C149.366 19.1168 148.909 18.9539 148.319 18.9539C147.652 18.9539 147.132 19.171 146.76 19.6054C146.403 20.0242 146.225 20.6292 146.225 21.4203V28.238H143.293Z" fill="#3A5088"/>
<path d="M38.7809 19.5127C38.7809 15.3985 37.1465 11.4528 34.2373 8.54356C31.3281 5.63437 27.3824 4 23.2682 4C19.154 4 15.2083 5.63437 12.2991 8.54356C9.38986 11.4528 7.75549 15.3985 7.75549 19.5127H12.6033C14.2097 19.5127 15.4625 18.1665 16.0509 16.6717C16.4372 15.6903 17.0234 14.7884 17.7836 14.0281C19.2382 12.5735 21.2111 11.7563 23.2682 11.7563C25.3253 11.7563 27.2982 12.5735 28.7528 14.0281C30.2074 15.4827 31.0245 17.4556 31.0245 19.5127H38.7809Z" fill="url(#paint0_linear_684_778)"/>
<path d="M29.8445 25.4491C30.6241 23.567 31.0254 21.5498 31.0254 19.5127H38.7809C38.7809 28.0801 31.8356 35.0253 23.2682 35.0253C21.9265 35.0253 20.6245 34.855 19.3829 34.5348C20.0854 34.3538 20.7759 34.1233 21.4491 33.8445C23.3312 33.0649 25.0413 31.9223 26.4818 30.4818C27.9223 29.0413 29.065 27.3312 29.8445 25.4491Z" fill="#FBCF8E"/>
<path d="M0 19.5127C-2.91433e-07 21.5499 0.401247 23.5671 1.18083 25.4492C1.96042 27.3313 3.10307 29.0414 4.54356 30.4819C5.98404 31.9223 7.69415 33.065 9.57623 33.8446C11.4583 34.6242 13.4755 35.0254 15.5127 35.0254C17.5498 35.0254 19.567 34.6242 21.4491 33.8446C23.3312 33.065 25.0413 31.9223 26.4818 30.4819C27.9223 29.0414 29.0649 27.3313 29.8445 25.4492C30.6241 23.5671 31.0254 21.5499 31.0254 19.5127H26.1776C24.5712 19.5127 23.3184 20.8589 22.73 22.3536C22.7133 22.3962 22.6961 22.4386 22.6786 22.481C22.2888 23.422 21.7175 24.2771 20.9972 24.9973C20.277 25.7175 19.4219 26.2889 18.4809 26.6787C17.5399 27.0685 16.5313 27.2691 15.5127 27.2691C14.4941 27.2691 13.4855 27.0685 12.5445 26.6787C11.6034 26.2889 10.7484 25.7175 10.0281 24.9973C9.30787 24.2771 8.73655 23.422 8.34676 22.481C7.95696 21.5399 7.75634 20.5313 7.75634 19.5127H0Z" fill="url(#paint1_linear_684_778)"/>
<path d="M0.00158691 19.5127C0.00158691 10.9452 6.94683 4 15.5142 4C16.8556 4 18.1572 4.17025 19.3987 4.49032C16.7348 5.17657 14.2774 6.56535 12.2991 8.54357C9.38992 11.4527 7.75557 15.3985 7.75557 19.5127H0.00158691Z" fill="#73E5E2"/>
<defs>
<linearGradient id="paint0_linear_684_778" x1="38.7809" y1="11.7563" x2="7.75549" y2="11.7563" gradientUnits="userSpaceOnUse">
<stop stop-color="#73E5E2"/>
<stop offset="1" stop-color="#394F87"/>
</linearGradient>
<linearGradient id="paint1_linear_684_778" x1="1.01712e-06" y1="27.2691" x2="31.0254" y2="27.2691" gradientUnits="userSpaceOnUse">
<stop stop-color="#FBDC8E"/>
<stop offset="1" stop-color="#FB958E"/>
</linearGradient>
</defs>
</svg>
