<svg width="98" height="36" viewBox="0 0 98 36" fill="none" xmlns="http://www.w3.org/2000/svg">
<path d="M36.2078 7.67453C36.2078 6.33837 34.9025 4.92079 32.6394 4.92079C30.0952 4.92079 27.3074 6.76819 26.8743 10.4606C26.4388 14.1937 28.7803 15.8436 31.1327 15.8436C33.4851 15.8436 34.724 14.9336 35.9822 13.7148C34.8965 12.3571 33.4947 12.9893 33.2305 13.121C32.9374 13.267 32.5526 13.4682 31.7721 13.4682C30.8601 13.4682 29.936 13.0587 29.936 11.3789C35.7639 10.8246 36.2078 9.01189 36.2078 7.67453ZM33.3198 7.89842C33.2836 8.31028 33.1123 9.02386 30.1628 9.41537C30.7853 7.22315 31.9723 7.06032 32.5188 7.06032C33.0327 7.06032 33.3608 7.45543 33.3198 7.89842ZM23.4495 8.25401C23.4495 8.25401 22.1961 12.1559 22.0983 12.4828C22.0658 12.1559 21.1477 5.14827 21.1477 5.14827C19.0125 5.14827 17.8713 6.65325 17.2693 8.25281C17.2693 8.25281 15.7445 12.1655 15.6215 12.4924C15.6142 12.1859 15.3862 8.29352 15.3862 8.29352C15.2571 6.33717 13.4585 5.15306 12 5.15306L13.754 15.7693C15.993 15.7621 17.1921 14.2596 17.8243 12.6624C17.8243 12.6624 19.1657 9.21064 19.2212 9.05379C19.2345 9.20345 20.1863 15.7693 20.1863 15.7693C22.4277 15.7693 23.6364 14.3613 24.2879 12.824L27.4328 5.15306C25.218 5.15306 24.0514 6.65445 23.4495 8.25401ZM44.4399 4.90642C43.0623 4.90642 42.0007 5.64873 41.1068 6.74783L41.108 6.73945L41.903 0.360352C40.0693 0.360352 38.5698 1.94555 38.2839 4.297L36.8894 15.6867C37.9474 15.6867 39.0681 15.3814 39.6736 14.6092C40.2153 15.3 41.0199 15.8507 42.2118 15.8507C45.3049 15.8507 47.4317 12.2817 47.4317 8.93047C47.4317 5.87262 45.9334 4.90642 44.4399 4.90642ZM44.1564 10.378C43.8356 12.2505 42.786 13.5149 41.7703 13.5149C40.7461 13.5149 40.3142 13.0647 40.3142 13.0647C40.5048 11.428 40.6315 10.4235 41.0055 9.55785C41.377 8.69341 42.2576 7.31295 43.1793 7.31295C44.0744 7.31295 44.4773 8.50544 44.1564 10.378ZM55.1873 5.15426H53.0219L53.0316 5.04171C53.1799 3.6385 53.5177 2.90098 54.6143 2.78843C55.3622 2.71181 55.7024 2.32509 55.7808 1.90843C55.8423 1.58038 56.0522 0.423807 56.0522 0.423807C51.707 0.399862 50.3462 2.26043 49.9976 5.0896L49.9903 5.15306L49.9469 5.15426C49.2412 5.15426 48.4667 5.94686 48.3316 6.95377L48.2834 7.32492H49.7286L48.5162 17.2863L48.1483 19.0774L48.2978 19.0822C50.3257 19.0056 51.631 17.418 51.9193 15.1072L52.8663 7.32492H53.5443C54.2089 7.32492 54.9907 6.66283 55.1342 5.55894L55.1873 5.15426ZM66.4268 4.96868C63.9321 4.96868 61.5797 6.79213 60.8559 9.66081C60.1333 12.5271 61.2323 15.913 64.8996 15.913C68.5693 15.913 70.678 12.3846 70.678 9.45369C70.678 6.52275 68.6803 4.96868 66.4268 4.96868ZM67.4402 10.293C67.3099 11.5932 66.7321 13.558 65.1529 13.558C63.5666 13.558 63.7922 11.252 63.9466 10.1577C64.1107 8.98435 64.7742 7.32373 66.188 7.32373C67.4643 7.32373 67.5862 8.82392 67.4402 10.293ZM83.0021 8.25401C83.0021 8.25401 81.7475 12.1559 81.6522 12.4828C81.6184 12.1559 80.7004 5.14827 80.7004 5.14827C78.5651 5.14827 77.4239 6.65325 76.822 8.25281C76.822 8.25281 75.2983 12.1655 75.1741 12.4924C75.1669 12.1859 74.9401 8.29352 74.9401 8.29352C74.811 6.33717 73.0099 5.15306 71.5538 5.15306L73.3067 15.7693C75.5456 15.7621 76.7448 14.2596 77.3781 12.6624C77.3781 12.6624 78.7183 9.21064 78.7738 9.05379C78.7883 9.20345 79.7389 15.7693 79.7389 15.7693C81.9803 15.7693 83.1891 14.3613 83.8405 12.824L86.9855 5.15306C84.7706 5.15306 83.6041 6.65445 83.0021 8.25401ZM57.226 0.423807L55.4069 14.9803L55.402 14.9779L55.0329 16.7774L55.1813 16.7822C57.1404 16.7583 58.5289 15.0534 58.7907 12.903L59.8402 4.54724C60.1611 2.00422 58.6314 0.423807 57.226 0.423807Z" fill="white"/>
<path fill-rule="evenodd" clip-rule="evenodd" d="M40.8885 25.1836C40.5685 25.1836 40.2617 25.3097 40.0355 25.5343C39.8092 25.7588 39.6821 26.0633 39.6821 26.3809V34.7618C39.6821 35.0794 39.8092 35.3839 40.0355 35.6084C40.2617 35.833 40.5685 35.9591 40.8885 35.9591H57.7774C58.0973 35.9591 58.4042 35.833 58.6304 35.6084C58.8566 35.3839 58.9837 35.0794 58.9837 34.7618V26.3809C58.9837 26.0633 58.8566 25.7588 58.6304 25.5343C58.4042 25.3097 58.0973 25.1836 57.7774 25.1836H40.8885ZM43.8477 28.2438V32.7217H44.3941V31.0862H45.3797C45.7308 31.0862 46.0191 31.0227 46.2435 30.8946C46.4584 30.7773 46.6322 30.5977 46.7417 30.3798C46.8503 30.1643 46.9045 29.9248 46.9045 29.6614C46.9045 29.3968 46.8503 29.1586 46.7417 28.943C46.6303 28.7264 46.4548 28.5488 46.2386 28.4342C46.0143 28.3073 45.7247 28.2438 45.3713 28.2438H43.8477ZM44.3941 30.6049H45.3628C45.6041 30.6049 45.7995 30.563 45.9467 30.4804C46.0862 30.4047 46.1977 30.2868 46.2652 30.1439C46.3347 29.9922 46.3693 29.8269 46.3665 29.6602C46.3693 29.4947 46.3347 29.3306 46.2652 29.1801C46.1979 29.0372 46.0852 28.9202 45.9443 28.8473C45.7607 28.758 45.5574 28.716 45.3532 28.7251H44.3929L44.3941 30.6049ZM47.784 28.2438V32.7217H48.3304V30.9724H49.3172C49.3558 30.9724 49.3944 30.9724 49.4318 30.97L50.3824 32.7205H51.017L49.9976 30.8743C50.0616 30.8527 50.1219 30.8276 50.1786 30.7988C50.3911 30.6939 50.5656 30.5262 50.678 30.3187C50.7866 30.1152 50.8409 29.8805 50.8409 29.6171C50.8409 29.3537 50.7866 29.1179 50.678 28.9107C50.5659 28.7004 50.3904 28.5301 50.1762 28.4234C49.9494 28.3037 49.6598 28.2438 49.3076 28.2438H47.784ZM48.3304 30.4828H49.2991C49.5404 30.4828 49.7334 30.4468 49.8806 30.3774C50.0187 30.3174 50.1322 30.2127 50.2027 30.0805C50.2735 29.9363 50.3083 29.7774 50.304 29.6171C50.304 29.4375 50.2703 29.2819 50.2027 29.1466C50.1325 29.0102 50.0182 28.901 49.8782 28.8365C49.6936 28.7549 49.4926 28.7168 49.2907 28.7251H48.3304V30.4828ZM55.2995 31.7064C55.4708 31.3628 55.5565 30.9545 55.5565 30.4828C55.5565 30.0098 55.4708 29.6028 55.2995 29.2579C55.1438 28.9323 54.8988 28.6568 54.5926 28.4629C54.2845 28.2739 53.9282 28.1766 53.566 28.1828C53.2042 28.1764 52.8482 28.2736 52.5406 28.4629C52.234 28.6566 51.9886 28.9322 51.8325 29.2579C51.6612 29.6028 51.5743 30.0098 51.5743 30.4828C51.5743 30.9545 51.6612 31.3628 51.8325 31.7064C52.0038 32.05 52.2402 32.3158 52.5394 32.5026C52.8386 32.6881 53.1812 32.7815 53.5648 32.7815C53.9508 32.7815 54.2922 32.6881 54.5926 32.5026C54.8918 32.3158 55.127 32.05 55.2995 31.7064ZM54.8327 29.501C54.963 29.768 55.0281 30.0948 55.0281 30.4828C55.0281 30.8707 54.963 31.1975 54.8327 31.4645C54.7194 31.7124 54.5364 31.9223 54.3055 32.0691C54.084 32.2067 53.8273 32.2781 53.566 32.2751C53.304 32.278 53.0466 32.2065 52.8241 32.0691C52.5937 31.9213 52.4108 31.711 52.2969 31.4633C52.1678 31.1975 52.1039 30.8707 52.1039 30.4816C52.1039 30.0948 52.1678 29.768 52.2969 29.501C52.4113 29.2536 52.5941 29.0435 52.8241 28.8952C53.0467 28.7582 53.3041 28.6872 53.566 28.6904C53.8386 28.6904 54.0847 28.7587 54.3055 28.8952C54.5275 29.0328 54.7036 29.234 54.8327 29.501Z" fill="white"/>
</svg>
