<?xml version="1.0" encoding="utf-8"?>
<!-- Generator: Adobe Illustrator 25.2.1, SVG Export Plug-In . SVG Version: 6.00 Build 0)  -->
<svg version="1.1" id="Layer_1" xmlns="http://www.w3.org/2000/svg" xmlns:xlink="http://www.w3.org/1999/xlink" x="0px" y="0px"
	 viewBox="0 0 30 30" style="enable-background:new 0 0 30 30;" xml:space="preserve">
<style type="text/css">
	.st0{fill:#FFFFFF;}
	.st1{fill:#A6A6A6;}
	.st2{opacity:0.2;enable-background:new    ;}
	.st3{opacity:0.12;enable-background:new    ;}
</style>
<path class="st0" d="M15,1C7.3,1,1,7.3,1,15s6.2,14,14,14c7.7,0,14-6.2,14-14S22.7,1,15,1z M20.7,21.6c-0.2,0-0.4-0.1-0.6-0.2
	c-2-1.2-4.5-1.9-7.2-1.9c-1.5,0-3,0.2-4.4,0.5c-0.2,0-0.5,0.1-0.7,0.1c-0.5,0-0.9-0.4-0.9-0.9c0-0.6,0.3-0.9,0.8-1
	c1.7-0.4,3.4-0.6,5.2-0.6c3.1,0,5.8,0.7,8.1,2.1c0.3,0.2,0.6,0.4,0.6,0.9C21.5,21.2,21.1,21.6,20.7,21.6z M22.2,17.9
	c-0.3,0-0.5-0.1-0.7-0.2c-2.3-1.3-5.4-2.2-8.9-2.2c-1.8,0-3.3,0.2-4.6,0.6c-0.3,0.1-0.4,0.2-0.7,0.2c-0.6,0-1.1-0.5-1.1-1.1
	c0-0.6,0.3-1,0.9-1.2c1.6-0.4,3.2-0.8,5.5-0.8c3.7,0,7.2,0.9,10,2.6c0.5,0.3,0.6,0.6,0.6,1.1C23.3,17.4,22.8,17.9,22.2,17.9z
	 M23.9,13.6c-0.3,0-0.5-0.1-0.7-0.2C20.7,11.9,16.7,11,13,11c-1.9,0-3.8,0.2-5.6,0.7c-0.2,0.1-0.5,0.2-0.7,0.2
	c-0.7,0-1.3-0.6-1.3-1.3c0-0.8,0.5-1.2,1-1.3c2-0.6,4.2-0.9,6.6-0.9c4.1,0,8.4,0.8,11.6,2.7c0.4,0.2,0.7,0.6,0.7,1.3
	C25.2,13,24.6,13.6,23.9,13.6z"/>
</svg>
