<?xml version="1.0" encoding="utf-8"?>
<!-- Generator: Adobe Illustrator 25.2.1, SVG Export Plug-In . SVG Version: 6.00 Build 0)  -->
<svg version="1.1" id="Layer_1" xmlns="http://www.w3.org/2000/svg" xmlns:xlink="http://www.w3.org/1999/xlink" x="0px" y="0px"
	 viewBox="0 0 30 30" style="enable-background:new 0 0 30 30;" xml:space="preserve">
<style type="text/css">
	.st0{fill:#FFFFFF;}
	.st1{fill:#A6A6A6;}
	.st2{opacity:0.2;enable-background:new    ;}
	.st3{opacity:0.12;enable-background:new    ;}
</style>
<g>
	<path class="st0" d="M28.9,9.2c0-0.2-0.4-2.2-1.2-3.1c-1.1-1.2-2.3-1.4-2.9-1.4h-0.1c-3.8-0.2-9.5-0.2-9.6-0.2c0,0-5.8,0-9.6,0.2
		H5.3c-0.6,0-1.8,0.1-2.9,1.4c-0.9,1-1.2,2.9-1.2,3.2c0,0.1-0.2,2.3-0.2,4.7v2.1c0,2.3,0.2,4.5,0.2,4.7c0,0.2,0.4,2.2,1.2,3.1
		c1,1.1,2.2,1.2,2.9,1.4c0.1,0,0.2,0,0.4,0c2.2,0.2,9,0.2,9.2,0.2l0,0c0,0,5.8,0,9.6-0.2h0.1c0.6-0.1,1.8-0.2,2.9-1.4
		c0.9-1,1.2-2.9,1.2-3.2c0-0.1,0.2-2.3,0.2-4.7v-2.1C29.2,11.7,28.9,9.3,28.9,9.2z M19.8,15.2l-7.4,3.9c-0.1,0-0.1,0.1-0.2,0.1
		c-0.1,0-0.2,0-0.2-0.1c-0.1-0.1-0.2-0.2-0.2-0.5v-8c0-0.2,0.1-0.4,0.2-0.5c0.1-0.1,0.4-0.1,0.6,0l7.4,3.9c0.2,0.1,0.4,0.2,0.4,0.5
		S20.1,15.1,19.8,15.2z"/>
</g>
</svg>
