<?xml version="1.0" encoding="utf-8"?>
<!-- Generator: Adobe Illustrator 25.2.1, SVG Export Plug-In . SVG Version: 6.00 Build 0)  -->
<svg version="1.1" id="Layer_1" xmlns="http://www.w3.org/2000/svg" xmlns:xlink="http://www.w3.org/1999/xlink" x="0px" y="0px"
	 viewBox="0 0 30 30" style="enable-background:new 0 0 30 30;" xml:space="preserve">
<style type="text/css">
	.st0{fill:#FFFFFF;}
	.st1{fill:#A6A6A6;}
	.st2{opacity:0.2;enable-background:new    ;}
	.st3{opacity:0.12;enable-background:new    ;}
</style>
<path class="st0" d="M9.7,26.5c10.7,0,16.6-8.9,16.6-16.6c0-0.3,0-0.5,0-0.8c1.1-0.8,2.1-1.8,2.9-3C28.1,6.7,27,7,25.8,7.1
	c1.2-0.7,2.1-1.9,2.6-3.2c-1.1,0.7-2.4,1.2-3.7,1.4c-1.1-1.2-2.6-1.8-4.2-1.8c-3.2,0-5.8,2.6-5.8,5.8c0,0.4,0.1,0.9,0.2,1.3
	c-4.7-0.2-9-2.4-12-6.1c-1.5,2.6-0.7,6.1,1.8,7.8c-0.9,0-1.8-0.3-2.6-0.7v0.1c0,2.8,2,5.2,4.7,5.7c-0.9,0.2-1.8,0.3-2.6,0.1
	c0.8,2.4,3,4,5.4,4C7.4,23.1,4.8,24,2.2,24c-0.5,0-0.9,0-1.4-0.1C3.5,25.6,6.6,26.5,9.7,26.5"/>
</svg>
