<?xml version="1.0" encoding="utf-8"?>
<!-- Generator: Adobe Illustrator 25.2.1, SVG Export Plug-In . SVG Version: 6.00 Build 0)  -->
<svg version="1.1" id="Layer_1" xmlns="http://www.w3.org/2000/svg" xmlns:xlink="http://www.w3.org/1999/xlink" x="0px" y="0px"
	 viewBox="0 0 30 30" style="enable-background:new 0 0 30 30;" xml:space="preserve">
<style type="text/css">
	.st0{fill:#FFFFFF;}
	.st1{fill:#A6A6A6;}
	.st2{opacity:0.2;enable-background:new    ;}
	.st3{opacity:0.12;enable-background:new    ;}
</style>
<g>
	<path class="st0" d="M15,7.5c-4.1,0-7.4,3.3-7.4,7.4s3.3,7.4,7.4,7.4s7.4-3.4,7.4-7.4S19.1,7.5,15,7.5z M15,19.7
		c-2.6,0-4.7-2.1-4.7-4.7s2.1-4.7,4.7-4.7s4.7,2.1,4.7,4.7S17.6,19.7,15,19.7z"/>
	<circle class="st0" cx="22.7" cy="7.4" r="1.7"/>
	<path class="st0" d="M27,3c-1.5-1.6-3.6-2.4-6.1-2.4H9C4,0.7,0.7,4,0.7,9v11.9c0,2.5,0.8,4.6,2.4,6.2c1.6,1.5,3.6,2.3,6,2.3h11.8
		c2.5,0,4.6-0.8,6.1-2.3c1.6-1.5,2.4-3.6,2.4-6.1V9C29.3,6.6,28.5,4.5,27,3z M26.8,21c0,1.8-0.6,3.2-1.7,4.2s-2.5,1.5-4.2,1.5H9.1
		c-1.7,0-3.2-0.5-4.2-1.5c-1-1-1.6-2.5-1.6-4.3V9c0-1.7,0.5-3.2,1.6-4.2c1-1,2.5-1.5,4.2-1.5H21c1.7,0,3.2,0.5,4.2,1.6
		c1,1,1.6,2.5,1.6,4.2V21L26.8,21z"/>
</g>
</svg>
